HIERARCHY
ROOT Hip
{
	OFFSET	0.00  0.00  0.00 
	CHANNELS 6 Xposition Yposition Zposition Xrotation Zrotation Yrotation
	JOINT Abdomen
	{
		OFFSET	0.039181 5.637571 0.560720
		CHANNELS 3 Xrotation Zrotation Yrotation
		JOINT Chest
		{
			OFFSET	-0.136063 7.190207 -0.124363
			CHANNELS 3 Xrotation Zrotation Yrotation
			JOINT Neck
			{
				OFFSET	0.193764 10.560151 -1.259468
				CHANNELS 3 Xrotation Zrotation Yrotation
				JOINT Head
				{
					OFFSET	-0.096882 0.362727 0.622109
					CHANNELS 3 Xrotation Zrotation Yrotation
					JOINT LeftEye
					{
						OFFSET	1.356350 5.062673 4.221998
						CHANNELS 3 Zrotation Yrotation Xrotation
						End Site
						{
							OFFSET 0.000000 0.000000 0.871939
						}
					}
					JOINT RightEye
					{
						OFFSET	-1.356350 5.062673 4.221998
						CHANNELS 3 Zrotation Yrotation Xrotation
						End Site
						{
							OFFSET 0.000000 0.000000 0.871939
						}
					}
				}
			}
			JOINT RightCollar
			{
				OFFSET	-3.778404 4.940989 0.193764
				CHANNELS 3 Yrotation Zrotation Xrotation
				JOINT RightShoulder
				{
					OFFSET	-2.615818 1.356350 -0.484411
					CHANNELS 3 Zrotation Yrotation Xrotation
					JOINT RightForearm
					{
						OFFSET	-11.432094 0.484410 -1.937643
						CHANNELS 3 Yrotation Zrotation Xrotation
						JOINT RightHand
						{
							OFFSET	-10.657035 -0.096881 0.581293
							CHANNELS 3 Zrotation Yrotation Xrotation
							JOINT RightThumb1
							{
								OFFSET	-0.678175 -0.581297 0.968821
								CHANNELS 3 Zrotation Yrotation Xrotation
								JOINT RightThumb2
								{
									OFFSET	-0.968823 -0.484410 0.484411
									CHANNELS 3 Zrotation Yrotation Xrotation
									JOINT RightThumb3
									{
										OFFSET	-0.929680 -0.497680 0.055639
										CHANNELS 3 Zrotation Yrotation Xrotation
										End Site
										{
											OFFSET -1.097190 -0.513867 -0.001182
										}
									}
								}
							}
							JOINT RightIndex1
							{
								OFFSET	-3.003348 0.581291 1.259468
								CHANNELS 3 Zrotation Yrotation Xrotation
								JOINT RightIndex2
								{
									OFFSET	-1.468153 -0.266718 0.069755
									CHANNELS 3 Zrotation Yrotation Xrotation
									JOINT RightIndex3
									{
										OFFSET	-0.944212 -0.382684 -0.083028
										CHANNELS 3 Zrotation Yrotation Xrotation
										End Site
										{
											OFFSET -0.675657 -0.558718 0.000000
										}
									}
								}
							}
							JOINT RightMid1
							{
								OFFSET	-3.197113 0.581291 0.290646
								CHANNELS 3 Zrotation Yrotation Xrotation
								JOINT RightMid2
								{
									OFFSET	-1.550115 -0.387529 0.000000
									CHANNELS 3 Zrotation Yrotation Xrotation
									JOINT RightMid3
									{
										OFFSET	-0.731071 -0.803926 0.018214
										CHANNELS 3 Zrotation Yrotation Xrotation
										End Site
										{
											OFFSET -0.366992 -0.937043 0.083406
										}
									}
								}
							}
							JOINT RightRing1
							{
								OFFSET	-3.197113 0.387529 -0.678175
								CHANNELS 3 Zrotation Yrotation Xrotation
								JOINT RightRing2
								{
									OFFSET	-1.259466 -0.484410 0.096882
									CHANNELS 3 Zrotation Yrotation Xrotation
									JOINT RightRing3
									{
										OFFSET	-0.551552 -0.801218 0.111221
										CHANNELS 3 Zrotation Yrotation Xrotation
										End Site
										{
											OFFSET -0.245208 -0.810324 0.000000
										}
									}
								}
							}
							JOINT RightPinky1
							{
								OFFSET	-2.809584 -0.096881 -1.453232
								CHANNELS 3 Zrotation Yrotation Xrotation
								JOINT RightPinky2
								{
									OFFSET	-0.984323 -0.316034 0.039140
									CHANNELS 3 Zrotation Yrotation Xrotation
									JOINT RightPinky3
									{
										OFFSET	-0.468908 -0.555906 0.057742
										CHANNELS 3 Zrotation Yrotation Xrotation
										End Site
										{
											OFFSET -0.479664 -0.640198 0.044081
										}
									}
								}
							}
						}
					}
				}
			}
			JOINT LeftCollar
			{
				OFFSET	3.972168 4.940989 0.193764
				CHANNELS 3 Yrotation Zrotation Xrotation
				JOINT LeftShoulder
				{
					OFFSET	2.615818 1.356350 -0.484411
					CHANNELS 3 Zrotation Yrotation Xrotation
					JOINT LeftForearm
					{
						OFFSET	11.432094 0.484410 -1.937643
						CHANNELS 3 Yrotation Zrotation Xrotation
						JOINT LeftHand
						{
							OFFSET	10.657035 -0.096881 0.581293
							CHANNELS 3 Zrotation Yrotation Xrotation
							JOINT LeftThumb1
							{
								OFFSET	0.678175 -0.581297 0.968821
								CHANNELS 3 Zrotation Yrotation Xrotation
								JOINT LeftThumb2
								{
									OFFSET	0.968823 -0.484410 0.484411
									CHANNELS 3 Zrotation Yrotation Xrotation
									JOINT LeftThumb3
									{
										OFFSET	0.929680 -0.497680 0.055639
										CHANNELS 3 Zrotation Yrotation Xrotation
										End Site
										{
											OFFSET 1.097190 -0.513867 -0.001182
										}
									}
								}
							}
							JOINT LeftIndex1
							{
								OFFSET	3.003348 0.581291 1.259468
								CHANNELS 3 Zrotation Yrotation Xrotation
								JOINT LeftIndex2
								{
									OFFSET	1.468153 -0.266718 0.069755
									CHANNELS 3 Zrotation Yrotation Xrotation
									JOINT LeftIndex3
									{
										OFFSET	0.944212 -0.382684 -0.083028
										CHANNELS 3 Zrotation Yrotation Xrotation
										End Site
										{
											OFFSET 0.675657 -0.558718 0.000000
										}
									}
								}
							}
							JOINT LeftMid1
							{
								OFFSET	3.197113 0.581291 0.290646
								CHANNELS 3 Zrotation Yrotation Xrotation
								JOINT LeftMid2
								{
									OFFSET	1.550115 -0.387529 0.000000
									CHANNELS 3 Zrotation Yrotation Xrotation
									JOINT LeftMid3
									{
										OFFSET	0.731071 -0.803926 0.018214
										CHANNELS 3 Zrotation Yrotation Xrotation
										End Site
										{
											OFFSET 0.366992 -0.937043 0.083406
										}
									}
								}
							}
							JOINT LeftRing1
							{
								OFFSET	3.197113 0.387529 -0.678175
								CHANNELS 3 Zrotation Yrotation Xrotation
								JOINT LeftRing2
								{
									OFFSET	1.259466 -0.484410 0.096882
									CHANNELS 3 Zrotation Yrotation Xrotation
									JOINT LeftRing3
									{
										OFFSET	0.551552 -0.801218 0.111221
										CHANNELS 3 Zrotation Yrotation Xrotation
										End Site
										{
											OFFSET 0.245208 -0.810324 0.000000
										}
									}
								}
							}
							JOINT LeftPinky1
							{
								OFFSET	2.809584 -0.096881 -1.453232
								CHANNELS 3 Zrotation Yrotation Xrotation
								JOINT LeftPinky2
								{
									OFFSET	0.984323 -0.316034 0.039140
									CHANNELS 3 Zrotation Yrotation Xrotation
									JOINT LeftPinky3
									{
										OFFSET	0.468908 -0.555906 0.057742
										CHANNELS 3 Zrotation Yrotation Xrotation
										End Site
										{
											OFFSET 0.479664 -0.640198 0.044081
										}
									}
								}
							}
						}
					}
				}
			}
		}
	}
	JOINT RightThigh
	{
		OFFSET	-3.875286 0.717509 0.339475
		CHANNELS 3 Xrotation Zrotation Yrotation
		JOINT RightShin
		{
			OFFSET	-0.434323 -20.673391 0.003424
			CHANNELS 3 Xrotation Zrotation Yrotation
			JOINT RightFoot
			{
				OFFSET	-0.063555 -15.653578 -0.075717
				CHANNELS 3 Xrotation Yrotation Zrotation
				JOINT RightToe
				{
					OFFSET	-0.513669 -2.790361 5.061637
					CHANNELS 3 Xrotation Yrotation Zrotation
					End Site
					{
						OFFSET 0.000000 -0.280183 2.993164
					}
				}
			}
		}
	}
	JOINT LeftThigh
	{
		OFFSET	3.875286 0.717509 0.339475
		CHANNELS 3 Xrotation Zrotation Yrotation
		JOINT LeftShin
		{
			OFFSET	0.434323 -20.673391 0.003424
			CHANNELS 3 Xrotation Zrotation Yrotation
			JOINT LeftFoot
			{
				OFFSET	0.063555 -15.653578 -0.075717
				CHANNELS 3 Xrotation Yrotation Zrotation
				JOINT LeftToe
				{
					OFFSET	0.513669 -2.874842 4.946725
					CHANNELS 3 Xrotation Yrotation Zrotation
					End Site
					{
						OFFSET 0.000000 -0.195702 3.108076
					}
				}
			}
		}
	}
}
MOTION
Frames:     4
Frame Time: 0.033333
-44.776989 39.884560 57.457020 2.464280 2.985540 -27.635900 2.285200 0.351285 -10.004400 13.442800 6.327190 0.991755 0.000000 0.000000 0.000000 -20.080500 -8.262390 9.505150 0.000000 0.000000 0.000000 0.000000 0.000000 0.000000 -8.918850 -22.083300 -2.084340 84.415787 -0.011362 -14.910880 51.150181 0.093207 -0.524387 -9.150794 -21.989964 3.535215 -2.196803 8.088476 9.363434 14.045960 8.200828 -17.027071 -4.667157 11.532217 -17.436045 0.000000 0.000000 0.000000 10.247213 9.822695 -5.878980 -8.823756 3.416048 -6.315851 -0.175781 0.000000 0.000000 8.244953 -1.502700 0.722675 -12.838020 -2.429856 5.230082 -0.175781 0.000000 0.000000 -0.156757 -5.465929 4.370303 -17.719269 -3.972915 -0.926374 -0.175781 0.000000 0.000000 7.752715 -4.393883 3.036627 4.441531 -3.901016 1.855662 3.861330 17.104900 0.270177 -48.314579 -67.403610 -12.754783 -52.380547 -0.146960 -0.561118 14.137547 16.763006 5.813279 1.301079 -8.886789 9.164861 3.020779 -8.414250 -17.094839 3.918523 -12.334853 -17.914333 0.000000 0.000000 0.000000 -26.058514 -10.005517 -5.939190 -17.008429 -3.570157 -6.428789 -0.175781 0.000000 0.000000 -0.351563 0.000000 0.000000 -21.667566 1.148763 4.187686 -0.175781 0.000000 0.000000 -0.736324 5.381598 4.224761 16.871576 3.912536 -1.093365 -0.175781 0.000000 0.000000 -8.641175 4.276957 2.914167 -5.330077 3.798435 1.717381 -28.297655 -7.731276 -35.277664 6.678211 0.000726 -0.378569 11.912936 -5.256296 1.399232 -0.000457 0.016384 -0.175016 8.892870 4.004547 5.598441 18.104465 -0.072228 0.238503 -7.981571 3.238062 -1.618092 0.000000 0.000000 0.000000 
-46.801247 38.929897 59.581158 2.641680 3.511910 -26.370501 1.406570 1.230100 -10.512900 13.610700 5.980850 0.752486 0.000000 0.000000 0.000000 -20.690201 -9.550300 9.717310 0.000000 0.000000 0.000000 0.000000 0.000000 0.000000 -8.953540 -22.629499 -1.984840 83.804214 0.346309 -16.013847 50.974403 0.094025 -0.522692 -10.370660 -21.463451 4.015488 -2.196803 8.088476 9.363434 14.045960 8.200828 -17.027071 -4.667157 11.532217 -17.436045 0.000000 0.000000 0.000000 10.247213 9.822695 -5.878980 -8.823756 3.416048 -6.315851 -0.175781 0.000000 0.000000 8.244953 -1.502700 0.722675 -12.838020 -2.429856 5.230082 -0.175781 0.000000 0.000000 -0.156757 -5.465929 4.370303 -17.719269 -3.972915 -0.926374 -0.175781 0.000000 0.000000 7.752715 -4.393883 3.036627 4.441531 -3.901016 1.855662 3.300390 16.575100 0.454674 -43.247906 -68.878288 -20.371670 -53.964073 -0.098037 -0.387843 14.296538 15.188456 6.867610 1.301079 -8.886789 9.164861 3.020779 -8.414250 -17.094839 3.918523 -12.334853 -17.914333 0.000000 0.000000 0.000000 -26.058514 -10.005517 -5.939190 -17.008429 -3.570157 -6.428789 -0.175781 0.000000 0.000000 -0.351563 0.000000 0.000000 -21.667566 1.148763 4.187686 -0.175781 0.000000 0.000000 -0.736324 5.381598 4.224761 16.871576 3.912536 -1.093365 -0.175781 0.000000 0.000000 -8.641175 4.276957 2.914167 -5.330077 3.798435 1.717381 -34.275562 -11.424150 -32.506737 13.710114 0.000551 -0.231518 8.029614 -3.430242 -0.797729 -0.000457 0.016384 -0.175016 9.629725 4.906460 6.064561 22.850580 -0.060138 0.257597 -6.482541 2.352358 1.605268 0.000000 0.000000 0.000000 
-48.842747 38.106876 61.686607 2.816320 2.984690 -26.562901 0.704082 2.988070 -10.852600 13.407000 4.788390 0.974808 0.000000 0.000000 0.000000 -20.911699 -10.196200 10.343300 0.000000 0.000000 0.000000 0.000000 0.000000 0.000000 -8.752100 -22.461901 -1.892870 83.547272 1.565867 -15.341599 49.568222 0.090796 -0.505238 -11.619984 -21.845421 3.824894 -2.196803 8.088476 9.363434 14.045960 8.200828 -17.027071 -4.667157 11.532217 -17.436045 0.000000 0.000000 0.000000 10.247213 9.822695 -5.878980 -8.823756 3.416048 -6.315851 -0.175781 0.000000 0.000000 8.244953 -1.502700 0.722675 -12.838020 -2.429856 5.230082 -0.175781 0.000000 0.000000 -0.156757 -5.465929 4.370303 -17.719269 -3.972915 -0.926374 -0.175781 0.000000 0.000000 7.752715 -4.393883 3.036627 4.441531 -3.901016 1.855662 2.745150 16.227100 0.797229 -44.124752 -66.343079 -21.575777 -55.370258 -0.096700 -0.404153 15.343945 14.129005 6.864175 1.301079 -8.886789 9.164861 3.020779 -8.414250 -17.094839 3.918523 -12.334853 -17.914333 0.000000 0.000000 0.000000 -26.058514 -10.005517 -5.939190 -17.008429 -3.570157 -6.428789 -0.175781 0.000000 0.000000 -0.351563 0.000000 0.000000 -21.667566 1.148763 4.187686 -0.175781 0.000000 0.000000 -0.736324 5.381598 4.224761 16.871576 3.912536 -1.093365 -0.175781 0.000000 0.000000 -8.641175 4.276957 2.914167 -5.330077 3.798435 1.717381 -37.180168 -12.907132 -29.460436 18.456879 0.000477 -0.075457 3.059064 -2.103800 -1.767342 -0.000457 0.016384 -0.175016 10.280726 5.935562 6.203511 27.772392 -0.077782 0.271506 -0.264806 3.014307 4.223713 0.000000 0.000000 0.000000 
-50.895290 37.836761 63.775963 3.341110 1.579350 -27.676300 0.352599 4.394470 -10.682200 13.033900 3.596570 1.368700 0.000000 0.000000 0.000000 -21.234699 -9.680770 11.449100 0.000000 0.000000 0.000000 0.000000 0.000000 0.000000 -8.151120 -21.956800 -1.622620 83.773651 3.858361 -13.977613 47.634602 -0.094994 -0.413134 -12.998916 -22.323593 2.863993 -2.196803 8.088476 9.363434 14.045960 8.200828 -17.027071 -4.667157 11.532217 -17.436045 0.000000 0.000000 0.000000 10.247213 9.822695 -5.878980 -8.823756 3.416048 -6.315851 -0.175781 0.000000 0.000000 8.244953 -1.502700 0.722675 -12.838020 -2.429856 5.230082 -0.175781 0.000000 0.000000 -0.156757 -5.465929 4.370303 -17.719269 -3.972915 -0.926374 -0.175781 0.000000 0.000000 7.752715 -4.393883 3.036627 4.441531 -3.901016 1.855662 2.374860 15.870500 0.909969 -47.632156 -61.227093 -20.075369 -56.599133 0.033213 -0.529384 17.391275 13.642702 6.492321 1.301079 -8.886789 9.164861 3.020779 -8.414250 -17.094839 3.918523 -12.334853 -17.914333 0.000000 0.000000 0.000000 -26.058514 -10.005517 -5.939190 -17.008429 -3.570157 -6.428789 -0.175781 0.000000 0.000000 -0.351563 0.000000 0.000000 -21.667566 1.148763 4.187686 -0.175781 0.000000 0.000000 -0.736324 5.381598 4.224761 16.871576 3.912536 -1.093365 -0.175781 0.000000 0.000000 -8.641175 4.276957 2.914167 -5.330077 3.798435 1.717381 -38.054684 -12.914512 -26.688543 28.297594 0.083573 -0.798769 -0.672273 -3.724345 -1.529818 -0.000457 0.016384 -0.175016 9.337152 7.926236 5.956298 32.339943 -0.450993 0.181727 18.173672 4.026448 5.014375 0.000000 0.000000 0.000000 
